<?xml version="1.0" encoding="UTF-8" standalone="no"?>
<!DOCTYPE svg PUBLIC "-//W3C//DTD SVG 1.0//EN" "http://www.w3.org/TR/2001/REC-SVG-20010904/DTD/svg10.dtd">
<!-- Generiert durch Microsoft Visio 11.0, SVG Export, v1.0 ast-scheme.svg Page-1 -->
<svg xmlns="http://www.w3.org/2000/svg" xmlns:v="http://schemas.microsoft.com/visio/2003/SVGExtensions/" width="8.26772in"
		height="11.6929in" viewBox="0 0 595.276 841.89" xml:space="preserve" color-interpolation-filters="sRGB" class="st9">
	<v:documentProperties v:langID="1031" v:metric="true" v:viewMarkup="false"/>

	<style type="text/css">
	<![CDATA[
		.st1 {fill:#d9d9d9;stroke:#164326;stroke-linecap:round;stroke-linejoin:round;stroke-width:0.24}
		.st2 {fill:#000000;font-family:Arial;font-size:0.833336em}
		.st3 {fill:#737373}
		.st4 {stroke:none;stroke-linecap:round;stroke-linejoin:round;stroke-width:0.72}
		.st5 {stroke:#164326;stroke-linecap:round;stroke-linejoin:round;stroke-width:0.24}
		.st6 {fill:#ffffff;stroke:#737373;stroke-linecap:round;stroke-linejoin:round;stroke-width:0.24;visibility:hidden}
		.st7 {fill:#d9d9d9;stroke:#000000;stroke-linecap:round;stroke-linejoin:round;stroke-width:0.24}
		.st8 {stroke:#000000;stroke-linecap:round;stroke-linejoin:round;stroke-width:2.16}
		.st9 {fill:none;fill-rule:evenodd;font-size:12;overflow:visible;stroke-linecap:square;stroke-miterlimit:3}
	]]>
	</style>

	<g v:mID="0" v:index="1" v:groupContext="foregroundPage">
		<title>Zeichenblatt-1</title>
		<v:pageProperties v:drawingScale="0.0393701" v:pageScale="0.0393701" v:drawingUnits="24" v:shadowOffsetX="8.50394"
				v:shadowOffsetY="-8.50394"/>
		<v:layer v:name="Verbinder" v:index="0"/>
		<v:layer v:name="back" v:index="1"/>
		<g id="shape1-1" v:mID="1" v:groupContext="shape" transform="translate(62.3622,-688.819)">
			<title>Feld</title>
			<desc>Code fragment</desc>
			<v:userDefs>
				<v:ud v:nameU="visVersion" v:val="VT0(12):26"/>
			</v:userDefs>
			<v:textBlock v:margins="rect(4,4,4,4)" v:tabSpace="42.5197"/>
			<v:textRect cx="70.8661" cy="827.717" width="141.74" height="28.3465"/>
			<rect x="0" y="813.543" width="141.732" height="28.3465" rx="8.50394" ry="8.50394" class="st1"/>
			<text x="37.79" y="830.72" class="st2" v:langID="1033"><v:paragraph v:horizAlign="1"/><v:tabList/>Code fragment</text>		</g>
		<g id="shape2-4" v:mID="2" v:groupContext="shape" transform="translate(62.3622,-640.63)">
			<title>Feld.2</title>
			<desc>Parsing/Analysis</desc>
			<v:userDefs>
				<v:ud v:nameU="visVersion" v:val="VT0(12):26"/>
			</v:userDefs>
			<v:textBlock v:margins="rect(4,4,4,4)" v:tabSpace="42.5197"/>
			<v:textRect cx="70.8661" cy="827.717" width="141.74" height="28.3465"/>
			<rect x="0" y="813.543" width="141.732" height="28.3465" rx="8.50394" ry="8.50394" class="st1"/>
			<text x="33.91" y="830.72" class="st2" v:langID="1033"><v:paragraph v:horizAlign="1"/><v:tabList/>Parsing/Analysis</text>		</g>
		<g id="group5-7" transform="translate(963.78,153.071) rotate(90)" v:mID="5" v:groupContext="group">
			<v:userDefs>
				<v:ud v:nameU="visVersion" v:val="VT0(12):26"/>
			</v:userDefs>
			<title>1D-Pfeil</title>
			<g id="shape6-8" v:mID="6" v:groupContext="shape">
				<title>Tabelle.6</title>
				<path d="M0 837.64 L15.59 837.64 L15.59 841.89 L19.84 833.39 L15.59 824.88 L15.59 829.13 L0 829.13 L0 837.64 Z"
						class="st3"/>
				<path d="M0 837.64 L15.59 837.64 L15.59 841.89 L19.84 833.39 L15.59 824.88 L15.59 829.13 L0 829.13" class="st4"/>
			</g>
			<g id="shape7-11" v:mID="7" v:groupContext="shape">
				<title>Tabelle.7</title>
				<path d="M0 837.64 L15.59 837.64 L15.59 841.89 L19.84 833.39 L15.59 824.88 L15.59 829.13 L0 829.13 L0 837.64"
						class="st5"/>
			</g>
			<g id="shape8-14" v:mID="8" v:groupContext="shape" transform="translate(-0.254425,-4.32397)">
				<title>Tabelle.8</title>
				<rect x="0" y="833.53" width="0.112" height="8.35994" class="st6"/>
			</g>
		</g>
		<g id="shape4-16" v:mID="4" v:groupContext="shape" transform="translate(62.3622,-592.441)">
			<title>Feld.4</title>
			<desc>Abstract Syntax Tree</desc>
			<v:userDefs>
				<v:ud v:nameU="visVersion" v:val="VT0(12):26"/>
			</v:userDefs>
			<v:textBlock v:margins="rect(4,4,4,4)" v:tabSpace="42.5197"/>
			<v:textRect cx="70.8661" cy="827.717" width="141.74" height="28.3465"/>
			<rect x="0" y="813.543" width="141.732" height="28.3465" rx="8.50394" ry="8.50394" class="st1"/>
			<text x="24.18" y="830.72" class="st2" v:langID="1033"><v:paragraph v:horizAlign="1"/><v:tabList/>Abstract Syntax Tree</text>		</g>
		<g id="group9-19" transform="translate(963.78,201.26) rotate(90)" v:mID="9" v:groupContext="group">
			<v:userDefs>
				<v:ud v:nameU="visVersion" v:val="VT0(12):26"/>
			</v:userDefs>
			<title>1D-Pfeil.9</title>
			<g id="shape10-20" v:mID="10" v:groupContext="shape">
				<title>Tabelle.10</title>
				<path d="M0 837.64 L15.59 837.64 L15.59 841.89 L19.84 833.39 L15.59 824.88 L15.59 829.13 L0 829.13 L0 837.64 Z"
						class="st3"/>
				<path d="M0 837.64 L15.59 837.64 L15.59 841.89 L19.84 833.39 L15.59 824.88 L15.59 829.13 L0 829.13" class="st4"/>
			</g>
			<g id="shape11-23" v:mID="11" v:groupContext="shape">
				<title>Tabelle.11</title>
				<path d="M0 837.64 L15.59 837.64 L15.59 841.89 L19.84 833.39 L15.59 824.88 L15.59 829.13 L0 829.13 L0 837.64"
						class="st5"/>
			</g>
			<g id="shape12-26" v:mID="12" v:groupContext="shape" transform="translate(-0.254425,-4.32397)">
				<title>Tabelle.12</title>
				<rect x="0" y="833.53" width="0.112" height="8.35994" class="st6"/>
			</g>
		</g>
		<g id="shape13-28" v:mID="13" v:groupContext="shape" transform="translate(62.3622,-544.252)">
			<title>Feld.13</title>
			<desc>Hash sub-trees</desc>
			<v:userDefs>
				<v:ud v:nameU="visVersion" v:val="VT0(12):26"/>
			</v:userDefs>
			<v:textBlock v:margins="rect(4,4,4,4)" v:tabSpace="42.5197"/>
			<v:textRect cx="70.8661" cy="827.717" width="141.74" height="28.3465"/>
			<rect x="0" y="813.543" width="141.732" height="28.3465" rx="8.50394" ry="8.50394" class="st1"/>
			<text x="36.96" y="830.72" class="st2" v:langID="1033"><v:paragraph v:horizAlign="1"/><v:tabList/>Hash sub-trees</text>		</g>
		<g id="group14-31" transform="translate(963.78,249.449) rotate(90)" v:mID="14" v:groupContext="group">
			<v:userDefs>
				<v:ud v:nameU="visVersion" v:val="VT0(12):26"/>
			</v:userDefs>
			<title>1D-Pfeil.14</title>
			<g id="shape15-32" v:mID="15" v:groupContext="shape">
				<title>Tabelle.15</title>
				<path d="M0 837.64 L15.59 837.64 L15.59 841.89 L19.84 833.39 L15.59 824.88 L15.59 829.13 L0 829.13 L0 837.64 Z"
						class="st3"/>
				<path d="M0 837.64 L15.59 837.64 L15.59 841.89 L19.84 833.39 L15.59 824.88 L15.59 829.13 L0 829.13" class="st4"/>
			</g>
			<g id="shape16-35" v:mID="16" v:groupContext="shape">
				<title>Tabelle.16</title>
				<path d="M0 837.64 L15.59 837.64 L15.59 841.89 L19.84 833.39 L15.59 824.88 L15.59 829.13 L0 829.13 L0 837.64"
						class="st5"/>
			</g>
			<g id="shape17-38" v:mID="17" v:groupContext="shape" transform="translate(-0.254425,-4.32397)">
				<title>Tabelle.17</title>
				<rect x="0" y="833.53" width="0.112" height="8.35994" class="st6"/>
			</g>
		</g>
		<g id="shape18-40" v:mID="18" v:groupContext="shape" transform="translate(62.3622,-496.063)">
			<title>Feld.18</title>
			<desc>Clone Detection Algorithm</desc>
			<v:userDefs>
				<v:ud v:nameU="visVersion" v:val="VT0(12):26"/>
			</v:userDefs>
			<v:textBlock v:margins="rect(4,4,4,4)" v:tabSpace="42.5197"/>
			<v:textRect cx="70.8661" cy="827.717" width="141.74" height="28.3465"/>
			<rect x="0" y="813.543" width="141.732" height="28.3465" rx="8.50394" ry="8.50394" class="st1"/>
			<text x="12.78" y="830.72" class="st2" v:langID="1033"><v:paragraph v:horizAlign="1"/><v:tabList/>Clone Detection Algorithm</text>		</g>
		<g id="group19-43" transform="translate(963.78,297.638) rotate(90)" v:mID="19" v:groupContext="group">
			<v:userDefs>
				<v:ud v:nameU="visVersion" v:val="VT0(12):26"/>
			</v:userDefs>
			<title>1D-Pfeil.19</title>
			<g id="shape20-44" v:mID="20" v:groupContext="shape">
				<title>Tabelle.20</title>
				<path d="M0 837.64 L15.59 837.64 L15.59 841.89 L19.84 833.39 L15.59 824.88 L15.59 829.13 L0 829.13 L0 837.64 Z"
						class="st3"/>
				<path d="M0 837.64 L15.59 837.64 L15.59 841.89 L19.84 833.39 L15.59 824.88 L15.59 829.13 L0 829.13" class="st4"/>
			</g>
			<g id="shape21-47" v:mID="21" v:groupContext="shape">
				<title>Tabelle.21</title>
				<path d="M0 837.64 L15.59 837.64 L15.59 841.89 L19.84 833.39 L15.59 824.88 L15.59 829.13 L0 829.13 L0 837.64"
						class="st5"/>
			</g>
			<g id="shape22-50" v:mID="22" v:groupContext="shape" transform="translate(-0.254425,-4.32397)">
				<title>Tabelle.22</title>
				<rect x="0" y="833.53" width="0.112" height="8.35994" class="st6"/>
			</g>
		</g>
		<g id="shape23-52" v:mID="23" v:groupContext="shape" transform="translate(62.3622,-447.874)">
			<title>Feld.23</title>
			<desc>Abstract Syntax Tree</desc>
			<v:userDefs>
				<v:ud v:nameU="visVersion" v:val="VT0(12):26"/>
			</v:userDefs>
			<v:textBlock v:margins="rect(4,4,4,4)" v:tabSpace="42.5197"/>
			<v:textRect cx="70.8661" cy="827.717" width="141.74" height="28.3465"/>
			<rect x="0" y="813.543" width="141.732" height="28.3465" rx="8.50394" ry="8.50394" class="st1"/>
			<text x="24.18" y="830.72" class="st2" v:langID="1033"><v:paragraph v:horizAlign="1"/><v:tabList/>Abstract Syntax Tree</text>		</g>
		<g id="group24-55" transform="translate(963.78,345.827) rotate(90)" v:mID="24" v:groupContext="group">
			<v:userDefs>
				<v:ud v:nameU="visVersion" v:val="VT0(12):26"/>
			</v:userDefs>
			<title>1D-Pfeil.24</title>
			<g id="shape25-56" v:mID="25" v:groupContext="shape">
				<title>Tabelle.25</title>
				<path d="M0 837.64 L15.59 837.64 L15.59 841.89 L19.84 833.39 L15.59 824.88 L15.59 829.13 L0 829.13 L0 837.64 Z"
						class="st3"/>
				<path d="M0 837.64 L15.59 837.64 L15.59 841.89 L19.84 833.39 L15.59 824.88 L15.59 829.13 L0 829.13" class="st4"/>
			</g>
			<g id="shape26-59" v:mID="26" v:groupContext="shape">
				<title>Tabelle.26</title>
				<path d="M0 837.64 L15.59 837.64 L15.59 841.89 L19.84 833.39 L15.59 824.88 L15.59 829.13 L0 829.13 L0 837.64"
						class="st5"/>
			</g>
			<g id="shape27-62" v:mID="27" v:groupContext="shape" transform="translate(-0.254425,-4.32397)">
				<title>Tabelle.27</title>
				<rect x="0" y="833.53" width="0.112" height="8.35994" class="st6"/>
			</g>
		</g>
		<g id="shape32-64" v:mID="32" v:groupContext="shape" v:layerMember="1" transform="translate(235.276,-592.441)">
			<title>Feld.32</title>
			<v:userDefs>
				<v:ud v:nameU="visVersion" v:val="VT0(12):26"/>
			</v:userDefs>
			<rect x="0" y="717.165" width="153.071" height="124.724" rx="5.66929" ry="5.66929" class="st7"/>
		</g>
		<g id="shape34-66" v:mID="34" v:groupContext="shape" transform="translate(240.945,-680.315)">
			<title>Feld.34</title>
			<desc>Basic Algorithm</desc>
			<v:userDefs>
				<v:ud v:nameU="visVersion" v:val="VT0(12):26"/>
			</v:userDefs>
			<v:textBlock v:margins="rect(4,4,4,4)" v:tabSpace="42.5197"/>
			<v:textRect cx="70.8661" cy="827.717" width="141.74" height="28.3465"/>
			<rect x="0" y="813.543" width="141.732" height="28.3465" rx="8.50394" ry="8.50394" class="st1"/>
			<text x="36.13" y="830.72" class="st2" v:langID="1033"><v:paragraph v:horizAlign="1"/><v:tabList/>Basic Algorithm</text>		</g>
		<g id="shape33-69" v:mID="33" v:groupContext="shape" transform="translate(240.945,-640.63)">
			<title>Feld.33</title>
			<desc>Sequence Detection</desc>
			<v:userDefs>
				<v:ud v:nameU="visVersion" v:val="VT0(12):26"/>
			</v:userDefs>
			<v:textBlock v:margins="rect(4,4,4,4)" v:tabSpace="42.5197"/>
			<v:textRect cx="70.8661" cy="827.717" width="141.74" height="28.3465"/>
			<rect x="0" y="813.543" width="141.732" height="28.3465" rx="8.50394" ry="8.50394" class="st1"/>
			<text x="25.83" y="830.72" class="st2" v:langID="1033"><v:paragraph v:horizAlign="1"/><v:tabList/>Sequence Detection</text>		</g>
		<g id="shape39-72" v:mID="39" v:groupContext="shape" transform="translate(240.945,-600.945)">
			<title>Feld.39</title>
			<desc>Generalization Aglorithm</desc>
			<v:userDefs>
				<v:ud v:nameU="visVersion" v:val="VT0(12):26"/>
			</v:userDefs>
			<v:textBlock v:margins="rect(4,4,4,4)" v:tabSpace="42.5197"/>
			<v:textRect cx="70.8661" cy="827.717" width="141.74" height="28.3465"/>
			<rect x="0" y="813.543" width="141.732" height="28.3465" rx="8.50394" ry="8.50394" class="st1"/>
			<text x="16.12" y="830.72" class="st2" v:langID="1033"><v:paragraph v:horizAlign="1"/><v:tabList/>Generalization Aglorithm</text>		</g>
		<g id="shape40-75" v:mID="40" v:groupContext="shape" transform="translate(240.945,-544.252)">
			<title>Feld.40</title>
			<desc>Results/Statistic</desc>
			<v:userDefs>
				<v:ud v:nameU="visVersion" v:val="VT0(12):26"/>
			</v:userDefs>
			<v:textBlock v:margins="rect(4,4,4,4)" v:tabSpace="42.5197"/>
			<v:textRect cx="70.8661" cy="827.717" width="141.74" height="28.3465"/>
			<rect x="0" y="813.543" width="141.732" height="28.3465" rx="8.50394" ry="8.50394" class="st1"/>
			<text x="35.3" y="830.72" class="st2" v:langID="1033"><v:paragraph v:horizAlign="1"/><v:tabList/>Results/Statistic</text>		</g>
		<g id="group29-78" transform="translate(1145.2,249.449) rotate(90)" v:mID="29" v:groupContext="group">
			<v:userDefs>
				<v:ud v:nameU="visVersion" v:val="VT0(12):26"/>
			</v:userDefs>
			<title>1D-Pfeil.29</title>
			<g id="shape30-79" v:mID="30" v:groupContext="shape">
				<title>Tabelle.30</title>
				<path d="M0 837.64 L15.59 837.64 L15.59 841.89 L19.84 833.39 L15.59 824.88 L15.59 829.13 L0 829.13 L0 837.64 Z"
						class="st3"/>
				<path d="M0 837.64 L15.59 837.64 L15.59 841.89 L19.84 833.39 L15.59 824.88 L15.59 829.13 L0 829.13" class="st4"/>
			</g>
			<g id="shape31-82" v:mID="31" v:groupContext="shape">
				<title>Tabelle.31</title>
				<path d="M0 837.64 L15.59 837.64 L15.59 841.89 L19.84 833.39 L15.59 824.88 L15.59 829.13 L0 829.13 L0 837.64"
						class="st5"/>
			</g>
			<g id="shape35-85" v:mID="35" v:groupContext="shape" transform="translate(-0.254425,-4.32397)">
				<title>Tabelle.35</title>
				<rect x="0" y="833.53" width="0.112" height="8.35994" class="st6"/>
			</g>
		</g>
		<g id="shape37-87" v:mID="37" v:groupContext="shape" v:layerMember="0" transform="translate(204.094,-462.047)">
			<title>Dynamischer Verbinder.37</title>
			<v:userDefs>
				<v:ud v:nameU="visVersion" v:val="VT0(12):26"/>
			</v:userDefs>
			<path d="M0 841.89 L18.14 841.89 L18.14 649.13 L31.18 649.13" class="st8"/>
		</g>
	</g>
</svg>
