<?xml version="1.0" encoding="UTF-8" standalone="no"?>
<!-- Generiert durch Microsoft Visio 11.0, SVG Export, v1.0 example-of-text-opt2.svg Page-1 -->

<svg
   xmlns:v="http://schemas.microsoft.com/visio/2003/SVGExtensions/"
   xmlns:dc="http://purl.org/dc/elements/1.1/"
   xmlns:cc="http://creativecommons.org/ns#"
   xmlns:rdf="http://www.w3.org/1999/02/22-rdf-syntax-ns#"
   xmlns:svg="http://www.w3.org/2000/svg"
   xmlns="http://www.w3.org/2000/svg"
   xmlns:sodipodi="http://sodipodi.sourceforge.net/DTD/sodipodi-0.dtd"
   xmlns:inkscape="http://www.inkscape.org/namespaces/inkscape"
   width="17in"
   height="11in"
   viewBox="0 0 1224 792"
   xml:space="preserve"
   color-interpolation-filters="sRGB"
   class="st10"
   id="svg2"
   version="1.1"
   inkscape:version="0.48.5 r10040"
   sodipodi:docname="example-of-text-opt.pdf"><metadata
   id="metadata322"><rdf:RDF><cc:Work
       rdf:about=""><dc:format>image/svg+xml</dc:format><dc:type
         rdf:resource="http://purl.org/dc/dcmitype/StillImage" /><dc:title></dc:title></cc:Work></rdf:RDF></metadata><sodipodi:namedview
   pagecolor="#ffffff"
   bordercolor="#666666"
   borderopacity="1"
   objecttolerance="10"
   gridtolerance="10"
   guidetolerance="10"
   inkscape:pageopacity="0"
   inkscape:pageshadow="2"
   inkscape:window-width="1920"
   inkscape:window-height="1018"
   id="namedview320"
   showgrid="false"
   inkscape:zoom="1.1683438"
   inkscape:cx="744.79416"
   inkscape:cy="507.55444"
   inkscape:window-x="-8"
   inkscape:window-y="-8"
   inkscape:window-maximized="1"
   inkscape:current-layer="shape6-52" />
	<v:documentProperties
   v:langID="1031"
   v:metric="true"
   v:viewMarkup="false" />

	<style
   type="text/css"
   id="style4">
	
		.st1 {fill:#d9d9d9;stroke:#000000;stroke-linecap:round;stroke-linejoin:round;stroke-width:0.24}
		.st2 {fill:#000000;font-family:Tahoma;font-size:1.00001em}
		.st3 {fill:#000000}
		.st4 {stroke:#000000;stroke-linecap:round;stroke-linejoin:round;stroke-width:0.239976}
		.st5 {fill:none;marker-start:url(#mrkr13-39);stroke:none;stroke-linecap:round;stroke-linejoin:round;stroke-width:0.72}
		.st6 {fill:#000000;fill-opacity:1;stroke:#000000;stroke-opacity:1;stroke-width:0.22222222222222}
		.st7 {fill:#ffffff;stroke:#000000;stroke-linecap:round;stroke-linejoin:round;stroke-width:0.24}
		.st8 {fill:none;stroke:none;stroke-linecap:round;stroke-linejoin:round;stroke-width:0.72}
		.st9 {fill:#164326;font-family:Arial;font-size:0.666664em}
		.st10 {fill:none;fill-rule:evenodd;font-size:12;overflow:visible;stroke-linecap:square;stroke-miterlimit:3}
	
	</style>

	<defs
   id="Markers">
		<g
   id="lend13">
			<path
   d="M 3 1 L -0 0 L 3 -1 L 3 1 "
   style="stroke:none"
   id="path8" />
		</g>
		<marker
   id="mrkr13-39"
   class="st6"
   v:arrowType="13"
   v:arrowSize="2"
   v:setback="13.5"
   refX="13.5"
   orient="auto"
   markerUnits="strokeWidth">
			<use
   href="#lend13"
   transform="scale(4.5) "
   id="use11" />
		</marker>
	
		<v:userDefs>
			<v:ud
   v:val="VT0(1):26"
   v:nameU="msvThemeColors" />
		</v:userDefs>
		
		<v:pageProperties
   v:shadowOffsetY="-8.50394"
   v:shadowOffsetX="8.50394"
   v:drawingUnits="24"
   v:pageScale="0.0393701"
   v:drawingScale="0.0393701" />
		<v:layer
   v:index="0"
   v:name="Verbinder" />
		
		
		
		
		
		
		
		
		
		
		
		
		
		
		
		
		
		
		
		
		
		
		
		
		
		
		
		
		
		
		
	</defs>
	<g
   transform="translate(658.293,-589.303)"
   v:groupContext="shape"
   v:mID="24"
   id="shape24-1">
			<title
   id="title18">Kreis.24</title>
			<desc
   id="desc20">block2</desc>
			<v:custProps>
				<v:cp
   v:val="VT4(myE)"
   v:langID="1033"
   v:type="0"
   v:lbl="Eigenschaft1"
   v:nameU="Row_1" />
			</v:custProps>
			<v:userDefs>
				<v:ud
   v:val="VT0(12):26"
   v:nameU="visVersion" />
				<v:ud
   v:val="VT0(1):26"
   v:nameU="msvThemeColors" />
			</v:userDefs>
			<v:textBlock
   v:tabSpace="42.5197"
   v:margins="rect(4,4,4,4)" />
			<v:textRect
   height="46.197"
   width="46.96"
   cy="768.901"
   cx="23.4769" />
			<path
   style="fill:#d9d9d9;stroke:#000000;stroke-width:0.23999999;stroke-linecap:round;stroke-linejoin:round"
   inkscape:connector-curvature="0"
   id="path22"
   class="st1"
   d="m 0,768.9 a 23.4769,23.0985 0 0 1 46.95,0 23.4769,23.0985 0 0 1 -46.95,0 z" />
			<text
   style="fill:#000000;font-family:Tahoma"
   id="text24"
   v:langID="1033"
   class="st2"
   y="772.5"
   x="6.5"><v:paragraph
   v:horizAlign="1" /><v:tabList />block2</text>
		</g><g
   transform="matrix(0,1,-1,0,1473.77,202.697)"
   v:groupContext="shape"
   v:mID="36"
   id="shape36-4">
			<title
   id="title27">Punkt und Pfeil.36</title>
			<v:userDefs>
				<v:ud
   v:val="VT0(0.02863242):1"
   v:nameU="ControlX" />
				<v:ud
   v:val="VT0(1):26"
   v:nameU="Scale" />
				<v:ud
   v:val="VT0(1):26"
   v:nameU="AntiScale" />
				<v:ud
   v:val="VT0(12):26"
   v:nameU="visVersion" />
				<v:ud
   v:val="VT0(1):26"
   v:nameU="msvThemeColors" />
			</v:userDefs>
			<path
   style="fill:#000000"
   inkscape:connector-curvature="0"
   id="path29"
   class="st3"
   d="m -2.06,792 a 2.06153,2.06153 -180 1 0 4.12,0 2.06153,2.06153 -180 0 0 -4.12,0 z m 44.13,-2.06 0,4.12 4.13,-2.06 -4.13,-2.06 z" />
			<path
   style="stroke:#000000;stroke-width:0.239976;stroke-linecap:round;stroke-linejoin:round"
   inkscape:connector-curvature="0"
   id="path31"
   class="st4"
   d="m -2.06,792 a 2.06153,2.06153 -180 1 0 4.12,0 2.06153,2.06153 -180 0 0 -4.12,0" />
			<path
   style="stroke:#000000;stroke-width:0.239976;stroke-linecap:round;stroke-linejoin:round"
   inkscape:connector-curvature="0"
   id="path33"
   class="st4"
   d="m 42.07,789.94 0,4.12 4.13,-2.06 -4.13,-2.06" />
			<path
   style="stroke:#000000;stroke-width:0.239976;stroke-linecap:round;stroke-linejoin:round"
   inkscape:connector-curvature="0"
   id="path35"
   class="st4"
   d="m 2.06,792 40.01,0" />
		</g><g
   transform="translate(658.131,-404.515)"
   v:groupContext="shape"
   v:mID="37"
   id="shape37-9">
			<title
   id="title38">Kreis.37</title>
			<desc
   id="desc40">i=0</desc>
			<v:custProps>
				<v:cp
   v:val="VT4(myE)"
   v:langID="1033"
   v:type="0"
   v:lbl="Eigenschaft1"
   v:nameU="Row_1" />
			</v:custProps>
			<v:userDefs>
				<v:ud
   v:val="VT0(12):26"
   v:nameU="visVersion" />
				<v:ud
   v:val="VT0(1):26"
   v:nameU="msvThemeColors" />
			</v:userDefs>
			<v:textBlock
   v:tabSpace="42.5197"
   v:margins="rect(4,4,4,4)" />
			<v:textRect
   height="46.197"
   width="46.96"
   cy="768.901"
   cx="23.4769" />
			<path
   style="fill:#d9d9d9;stroke:#000000;stroke-width:0.23999999;stroke-linecap:round;stroke-linejoin:round"
   inkscape:connector-curvature="0"
   id="path42"
   class="st1"
   d="m 0,768.9 a 23.4769,23.0985 0 0 1 46.95,0 23.4769,23.0985 0 0 1 -46.95,0 z" />
			<text
   style="fill:#000000;font-family:Tahoma"
   id="text44"
   v:langID="1033"
   class="st2"
   y="772.5"
   x="14.47"><v:paragraph
   v:horizAlign="1" /><v:tabList />i=0</text>
		</g><g
   transform="translate(658.293,-496.909)"
   v:groupContext="shape"
   v:mID="38"
   id="shape38-12">
			<title
   id="title47">Kreis.38</title>
			<desc
   id="desc49">If(i&gt;0)</desc>
			<v:custProps>
				<v:cp
   v:val="VT4(myE)"
   v:langID="1033"
   v:type="0"
   v:lbl="Eigenschaft1"
   v:nameU="Row_1" />
			</v:custProps>
			<v:userDefs>
				<v:ud
   v:val="VT0(12):26"
   v:nameU="visVersion" />
				<v:ud
   v:val="VT0(1):26"
   v:nameU="msvThemeColors" />
			</v:userDefs>
			<v:textBlock
   v:tabSpace="42.5197"
   v:margins="rect(4,4,4,4)" />
			<v:textRect
   height="46.197"
   width="46.96"
   cy="768.901"
   cx="23.4769" />
			<path
   style="fill:#d9d9d9;stroke:#000000;stroke-width:0.23999999;stroke-linecap:round;stroke-linejoin:round"
   inkscape:connector-curvature="0"
   id="path51"
   class="st1"
   d="m 0,768.9 a 23.4769,23.0985 0 0 1 46.95,0 23.4769,23.0985 0 0 1 -46.95,0 z" />
			<text
   style="fill:#000000;font-family:Tahoma"
   id="text53"
   v:langID="1033"
   class="st2"
   y="772.5"
   x="5.7199998"><v:paragraph
   v:horizAlign="1" /><v:tabList />If(i&gt;0)</text>
		</g><g
   transform="matrix(-0.00349414,0.9999939,0.9999939,0.00349414,-110.226,292.325)"
   v:groupContext="shape"
   v:mID="43"
   id="shape43-15">
			<title
   id="title56">Punkt und Pfeil.43</title>
			<v:userDefs>
				<v:ud
   v:val="VT0(0.02863242):1"
   v:nameU="ControlX" />
				<v:ud
   v:val="VT0(1):26"
   v:nameU="Scale" />
				<v:ud
   v:val="VT0(1):26"
   v:nameU="AntiScale" />
				<v:ud
   v:val="VT0(12):26"
   v:nameU="visVersion" />
				<v:ud
   v:val="VT0(1):26"
   v:nameU="msvThemeColors" />
			</v:userDefs>
			<path
   style="fill:#000000"
   inkscape:connector-curvature="0"
   id="path58"
   class="st3"
   d="m -2.06,792 a 2.06153,2.06153 -180 1 0 4.12,0 2.06153,2.06153 -180 0 0 -4.12,0 z m 44.13,-2.06 0,4.12 4.13,-2.06 -4.13,-2.06 z" />
			<path
   style="stroke:#000000;stroke-width:0.239976;stroke-linecap:round;stroke-linejoin:round"
   inkscape:connector-curvature="0"
   id="path60"
   class="st4"
   d="m -2.06,792 a 2.06153,2.06153 -180 1 0 4.12,0 2.06153,2.06153 -180 0 0 -4.12,0" />
			<path
   style="stroke:#000000;stroke-width:0.239976;stroke-linecap:round;stroke-linejoin:round"
   inkscape:connector-curvature="0"
   id="path62"
   class="st4"
   d="m 42.07,789.94 0,4.12 4.13,-2.06 -4.13,-2.06" />
			<path
   style="stroke:#000000;stroke-width:0.239976;stroke-linecap:round;stroke-linejoin:round"
   inkscape:connector-curvature="0"
   id="path64"
   class="st4"
   d="m 2.06,792 40.01,0" />
		</g><g
   transform="translate(611.438,-312.121)"
   v:groupContext="shape"
   v:mID="54"
   id="shape54-20">
			<title
   id="title67">Kreis.54</title>
			<desc
   id="desc69">i=0</desc>
			<v:custProps>
				<v:cp
   v:val="VT4(myE)"
   v:langID="1033"
   v:type="0"
   v:lbl="Eigenschaft1"
   v:nameU="Row_1" />
			</v:custProps>
			<v:userDefs>
				<v:ud
   v:val="VT0(12):26"
   v:nameU="visVersion" />
				<v:ud
   v:val="VT0(1):26"
   v:nameU="msvThemeColors" />
			</v:userDefs>
			<v:textBlock
   v:tabSpace="42.5197"
   v:margins="rect(4,4,4,4)" />
			<v:textRect
   height="46.197"
   width="46.96"
   cy="768.901"
   cx="23.4769" />
			<path
   style="fill:#d9d9d9;stroke:#000000;stroke-width:0.23999999;stroke-linecap:round;stroke-linejoin:round"
   inkscape:connector-curvature="0"
   id="path71"
   class="st1"
   d="m 0,768.9 a 23.4769,23.0985 0 0 1 46.95,0 23.4769,23.0985 0 0 1 -46.95,0 z" />
			<text
   style="fill:#000000;font-family:Tahoma"
   id="text73"
   v:langID="1033"
   class="st2"
   y="772.5"
   x="14.47"><v:paragraph
   v:horizAlign="1" /><v:tabList />i=0</text>
		</g><g
   transform="translate(707.955,-312.121)"
   v:groupContext="shape"
   v:mID="55"
   id="shape55-23">
			<title
   id="title76">Kreis.55</title>
			<desc
   id="desc78">i</desc>
			<v:custProps>
				<v:cp
   v:val="VT4(myE)"
   v:langID="1033"
   v:type="0"
   v:lbl="Eigenschaft1"
   v:nameU="Row_1" />
			</v:custProps>
			<v:userDefs>
				<v:ud
   v:val="VT0(12):26"
   v:nameU="visVersion" />
				<v:ud
   v:val="VT0(1):26"
   v:nameU="msvThemeColors" />
			</v:userDefs>
			<v:textBlock
   v:tabSpace="42.5197"
   v:margins="rect(4,4,4,4)" />
			<v:textRect
   height="46.197"
   width="46.96"
   cy="768.901"
   cx="23.4769" />
			<path
   style="fill:#d9d9d9;stroke:#000000;stroke-width:0.23999999;stroke-linecap:round;stroke-linejoin:round"
   inkscape:connector-curvature="0"
   id="path80"
   class="st1"
   d="m 0,768.9 a 23.4769,23.0985 0 0 1 46.95,0 23.4769,23.0985 0 0 1 -46.95,0 z" />
			<text
   style="fill:#000000;font-family:Tahoma"
   id="text82"
   v:langID="1033"
   class="st2"
   y="772.5"
   x="22.110001"><v:paragraph
   v:horizAlign="1" /><v:tabList />i</text>
		</g><g
   transform="matrix(-0.71282215,0.70134483,-0.70134483,-0.71282215,1237.33,952.045)"
   v:groupContext="shape"
   v:mID="56"
   id="shape56-26">
			<title
   id="title85">Punkt und Pfeil.56</title>
			<v:userDefs>
				<v:ud
   v:val="VT0(0.02863242):1"
   v:nameU="ControlX" />
				<v:ud
   v:val="VT0(1):26"
   v:nameU="Scale" />
				<v:ud
   v:val="VT0(1):26"
   v:nameU="AntiScale" />
				<v:ud
   v:val="VT0(12):26"
   v:nameU="visVersion" />
				<v:ud
   v:val="VT0(1):26"
   v:nameU="msvThemeColors" />
			</v:userDefs>
			<path
   style="fill:#000000"
   inkscape:connector-curvature="0"
   id="path87"
   class="st3"
   d="m -2.06,792 a 2.06153,2.06153 -180 1 0 4.12,0 2.06153,2.06153 -180 0 0 -4.12,0 z m 63.81,-2.06 0,4.12 4.12,-2.06 -4.12,-2.06 z" />
			<path
   style="stroke:#000000;stroke-width:0.239976;stroke-linecap:round;stroke-linejoin:round"
   inkscape:connector-curvature="0"
   id="path89"
   class="st4"
   d="m -2.06,792 a 2.06153,2.06153 -180 1 0 4.12,0 2.06153,2.06153 -180 0 0 -4.12,0" />
			<path
   style="stroke:#000000;stroke-width:0.239976;stroke-linecap:round;stroke-linejoin:round"
   inkscape:connector-curvature="0"
   id="path91"
   class="st4"
   d="m 61.75,789.94 0,4.12 4.12,-2.06 -4.12,-2.06" />
			<path
   style="stroke:#000000;stroke-width:0.239976;stroke-linecap:round;stroke-linejoin:round"
   inkscape:connector-curvature="0"
   id="path93"
   class="st4"
   d="m 2.06,792 59.69,0" />
		</g><g
   transform="matrix(0.73150485,0.68183623,-0.68183623,0.73150485,1221.88,-191.867)"
   v:groupContext="shape"
   v:mID="57"
   id="shape57-31">
			<title
   id="title96">Punkt und Pfeil.57</title>
			<v:userDefs>
				<v:ud
   v:val="VT0(0.02863242):1"
   v:nameU="ControlX" />
				<v:ud
   v:val="VT0(1):26"
   v:nameU="Scale" />
				<v:ud
   v:val="VT0(1):26"
   v:nameU="AntiScale" />
				<v:ud
   v:val="VT0(12):26"
   v:nameU="visVersion" />
				<v:ud
   v:val="VT0(1):26"
   v:nameU="msvThemeColors" />
			</v:userDefs>
			<path
   style="fill:#000000"
   inkscape:connector-curvature="0"
   id="path98"
   class="st3"
   d="m -2.06,792 a 2.06153,2.06153 -180 1 0 4.12,0 2.06153,2.06153 -180 0 0 -4.12,0 z m 65.69,-2.06 0,4.12 4.12,-2.06 -4.12,-2.06 z" />
			<path
   style="stroke:#000000;stroke-width:0.239976;stroke-linecap:round;stroke-linejoin:round"
   inkscape:connector-curvature="0"
   id="path100"
   class="st4"
   d="m -2.06,792 a 2.06153,2.06153 -180 1 0 4.12,0 2.06153,2.06153 -180 0 0 -4.12,0" />
			<path
   style="stroke:#000000;stroke-width:0.239976;stroke-linecap:round;stroke-linejoin:round"
   inkscape:connector-curvature="0"
   id="path102"
   class="st4"
   d="m 63.63,789.94 0,4.12 4.12,-2.06 -4.12,-2.06" />
			<path
   style="stroke:#000000;stroke-width:0.239976;stroke-linecap:round;stroke-linejoin:round"
   inkscape:connector-curvature="0"
   id="path104"
   class="st4"
   d="m 2.06,792 61.57,0" />
		</g><g
   transform="translate(535.748,-610.747)"
   v:groupContext="shape"
   v:mID="74"
   id="shape74-36">
			<title
   id="title107">Tabelle.74</title>
			<desc
   id="desc109">T2:</desc>
			<v:userDefs>
				<v:ud
   v:val="VT0(1):26"
   v:nameU="msvThemeColors" />
			</v:userDefs>
			<v:textBlock
   v:tabSpace="42.5197"
   v:margins="rect(4,4,4,4)" />
			<v:textRect
   height="28.9729"
   width="95.71"
   cy="777.514"
   cx="47.8523" />
			<rect
   style="fill:none;stroke:none;stroke-width:0.72000003;marker-start:url(#mrkr13-39)"
   id="rect111"
   class="st5"
   height="28.9729"
   width="95.704498"
   y="763.02698"
   x="0" />
			<text
   style="fill:#000000;font-family:Tahoma"
   id="text113"
   v:langID="1033"
   class="st2"
   y="781.10999"
   x="38.950001"><v:paragraph
   v:horizAlign="1" /><v:tabList />T2:</text>
		</g><g
   transform="translate(194.885,-589.303)"
   v:groupContext="shape"
   v:mID="1"
   id="shape1-41">
			<title
   id="title116">Kreis</title>
			<desc
   id="desc118">block1</desc>
			<v:custProps>
				<v:cp
   v:val="VT4(myE)"
   v:langID="1033"
   v:type="0"
   v:lbl="Eigenschaft1"
   v:nameU="Row_1" />
			</v:custProps>
			<v:userDefs>
				<v:ud
   v:val="VT0(12):26"
   v:nameU="visVersion" />
				<v:ud
   v:val="VT0(1):26"
   v:nameU="msvThemeColors" />
			</v:userDefs>
			<v:textBlock
   v:tabSpace="42.5197"
   v:margins="rect(4,4,4,4)" />
			<v:textRect
   height="46.197"
   width="46.96"
   cy="768.901"
   cx="23.4769" />
			<path
   style="fill:#d9d9d9;stroke:#000000;stroke-width:0.23999999;stroke-linecap:round;stroke-linejoin:round"
   inkscape:connector-curvature="0"
   id="path120"
   class="st1"
   d="m 0,768.9 a 23.4769,23.0985 0 0 1 46.95,0 23.4769,23.0985 0 0 1 -46.95,0 z" />
			<text
   style="fill:#000000;font-family:Tahoma"
   id="text122"
   v:langID="1033"
   class="st2"
   y="772.5"
   x="6.5"><v:paragraph
   v:horizAlign="1" /><v:tabList />block1</text>
		</g><g
   transform="matrix(0.93770897,0.34742177,-0.34742177,0.93770897,493.519,-539.968)"
   v:groupContext="shape"
   v:mID="4"
   id="shape4-44">
			<title
   id="title125">Punkt und Pfeil.4</title>
			<v:userDefs>
				<v:ud
   v:val="VT0(0.02863242):1"
   v:nameU="ControlX" />
				<v:ud
   v:val="VT0(1):26"
   v:nameU="Scale" />
				<v:ud
   v:val="VT0(1):26"
   v:nameU="AntiScale" />
				<v:ud
   v:val="VT0(12):26"
   v:nameU="visVersion" />
				<v:ud
   v:val="VT0(1):26"
   v:nameU="msvThemeColors" />
			</v:userDefs>
			<path
   style="fill:#000000"
   inkscape:connector-curvature="0"
   id="path127"
   class="st3"
   d="m -2.06,792 a 2.06153,2.06153 -180 1 0 4.12,0 2.06153,2.06153 -180 0 0 -4.12,0 z m 130.91,-2.06 0,4.12 4.12,-2.06 -4.12,-2.06 z" />
			<path
   style="stroke:#000000;stroke-width:0.239976;stroke-linecap:round;stroke-linejoin:round"
   inkscape:connector-curvature="0"
   id="path129"
   class="st4"
   d="m -2.06,792 a 2.06153,2.06153 -180 1 0 4.12,0 2.06153,2.06153 -180 0 0 -4.12,0" />
			<path
   style="stroke:#000000;stroke-width:0.239976;stroke-linecap:round;stroke-linejoin:round"
   inkscape:connector-curvature="0"
   id="path131"
   class="st4"
   d="m 128.85,789.94 0,4.12 4.12,-2.06 -4.12,-2.06" />
			<path
   style="stroke:#000000;stroke-width:0.239976;stroke-linecap:round;stroke-linejoin:round"
   inkscape:connector-curvature="0"
   id="path133"
   class="st4"
   d="m 2.06,792 126.79,0" />
		</g><g
   transform="translate(319.573,-496.909)"
   v:groupContext="shape"
   v:mID="5"
   id="shape5-49">
			<title
   id="title136">Kreis.5</title>
			<desc
   id="desc138">If(i&gt;0)</desc>
			<v:custProps>
				<v:cp
   v:val="VT4(myE)"
   v:langID="1033"
   v:type="0"
   v:lbl="Eigenschaft1"
   v:nameU="Row_1" />
			</v:custProps>
			<v:userDefs>
				<v:ud
   v:val="VT0(12):26"
   v:nameU="visVersion" />
				<v:ud
   v:val="VT0(1):26"
   v:nameU="msvThemeColors" />
			</v:userDefs>
			<v:textBlock
   v:tabSpace="42.5197"
   v:margins="rect(4,4,4,4)" />
			<v:textRect
   height="46.197"
   width="46.96"
   cy="768.901"
   cx="23.4769" />
			<path
   style="fill:#d9d9d9;stroke:#000000;stroke-width:0.23999999;stroke-linecap:round;stroke-linejoin:round"
   inkscape:connector-curvature="0"
   id="path140"
   class="st1"
   d="m 0,768.9 a 23.4769,23.0985 0 0 1 46.95,0 23.4769,23.0985 0 0 1 -46.95,0 z" />
			<text
   style="fill:#000000;font-family:Tahoma"
   id="text142"
   v:langID="1033"
   class="st2"
   y="772.5"
   x="5.7199998"><v:paragraph
   v:horizAlign="1" /><v:tabList />If(i&gt;0)</text>
		</g><g
   transform="translate(77.5006,-496.909)"
   v:groupContext="shape"
   v:mID="6"
   id="shape6-52">
			<title
   id="title145">Kreis.6</title>
			<desc
   id="desc147">if(i&gt;o)</desc>
			<v:custProps>
				<v:cp
   v:val="VT4(myE)"
   v:langID="1033"
   v:type="0"
   v:lbl="Eigenschaft1"
   v:nameU="Row_1" />
			</v:custProps>
			<v:userDefs>
				<v:ud
   v:val="VT0(12):26"
   v:nameU="visVersion" />
				<v:ud
   v:val="VT0(1):26"
   v:nameU="msvThemeColors" />
			</v:userDefs>
			<v:textBlock
   v:tabSpace="42.5197"
   v:margins="rect(4,4,4,4)" />
			<v:textRect
   height="46.197"
   width="46.96"
   cy="768.901"
   cx="23.4769" />
			<path
   style="fill:#ffffff;stroke:#000000;stroke-width:0.23999999;stroke-linecap:round;stroke-linejoin:round"
   inkscape:connector-curvature="0"
   id="path149"
   class="st7"
   d="m 0,768.9 a 23.4769,23.0985 0 0 1 46.95,0 23.4769,23.0985 0 0 1 -46.95,0 z" />
			<text
   style="fill:#000000;font-family:Tahoma"
   id="text151"
   v:langID="1033"
   class="st2"
   y="772.5"
   x="6.6100001">if(i&gt;0)</text>
		</g><g
   transform="matrix(-0.93053074,0.36621378,0.36621378,0.93053074,-71.6792,-534.283)"
   v:groupContext="shape"
   v:mID="3"
   id="shape3-55">
			<title
   id="title154">Punkt und Pfeil.3</title>
			<v:userDefs>
				<v:ud
   v:val="VT0(0.02863242):1"
   v:nameU="ControlX" />
				<v:ud
   v:val="VT0(1):26"
   v:nameU="Scale" />
				<v:ud
   v:val="VT0(1):26"
   v:nameU="AntiScale" />
				<v:ud
   v:val="VT0(12):26"
   v:nameU="visVersion" />
				<v:ud
   v:val="VT0(1):26"
   v:nameU="msvThemeColors" />
			</v:userDefs>
			<path
   style="fill:#000000"
   inkscape:connector-curvature="0"
   id="path156"
   class="st3"
   d="m -2.06,792 a 2.06153,2.06153 -180 1 0 4.12,0 2.06153,2.06153 -180 0 0 -4.12,0 z m 124.08,-2.06 0,4.12 4.13,-2.06 -4.13,-2.06 z" />
			<path
   style="stroke:#000000;stroke-width:0.239976;stroke-linecap:round;stroke-linejoin:round"
   inkscape:connector-curvature="0"
   id="path158"
   class="st4"
   d="m -2.06,792 a 2.06153,2.06153 -180 1 0 4.12,0 2.06153,2.06153 -180 0 0 -4.12,0" />
			<path
   style="stroke:#000000;stroke-width:0.239976;stroke-linecap:round;stroke-linejoin:round"
   inkscape:connector-curvature="0"
   id="path160"
   class="st4"
   d="m 122.02,789.94 0,4.12 4.13,-2.06 -4.13,-2.06" />
			<path
   style="stroke:#000000;stroke-width:0.239976;stroke-linecap:round;stroke-linejoin:round"
   inkscape:connector-curvature="0"
   id="path162"
   class="st4"
   d="m 2.06,792 119.96,0" />
		</g><g
   transform="matrix(-0.00424288,0.999991,-0.999991,-0.00424288,1135.04,298.451)"
   v:groupContext="shape"
   v:mID="7"
   id="shape7-60">
			<title
   id="title165">Punkt und Pfeil.7</title>
			<v:userDefs>
				<v:ud
   v:val="VT0(0.02863242):1"
   v:nameU="ControlX" />
				<v:ud
   v:val="VT0(1):26"
   v:nameU="Scale" />
				<v:ud
   v:val="VT0(1):26"
   v:nameU="AntiScale" />
				<v:ud
   v:val="VT0(12):26"
   v:nameU="visVersion" />
				<v:ud
   v:val="VT0(1):26"
   v:nameU="msvThemeColors" />
			</v:userDefs>
			<path
   style="fill:#000000"
   inkscape:connector-curvature="0"
   id="path167"
   class="st3"
   d="m -2.06,792 a 2.06153,2.06153 -180 1 0 4.12,0 2.06153,2.06153 -180 0 0 -4.12,0 z m 44.13,-2.06 0,4.12 4.13,-2.06 -4.13,-2.06 z" />
			<path
   style="stroke:#000000;stroke-width:0.239976;stroke-linecap:round;stroke-linejoin:round"
   inkscape:connector-curvature="0"
   id="path169"
   class="st4"
   d="m -2.06,792 a 2.06153,2.06153 -180 1 0 4.12,0 2.06153,2.06153 -180 0 0 -4.12,0" />
			<path
   style="stroke:#000000;stroke-width:0.239976;stroke-linecap:round;stroke-linejoin:round"
   inkscape:connector-curvature="0"
   id="path171"
   class="st4"
   d="m 42.07,789.94 0,4.12 4.13,-2.06 -4.13,-2.06" />
			<path
   style="stroke:#000000;stroke-width:0.239976;stroke-linecap:round;stroke-linejoin:round"
   inkscape:connector-curvature="0"
   id="path173"
   class="st4"
   d="m 2.06,792 40.01,0" />
		</g><g
   transform="translate(319.377,-404.515)"
   v:groupContext="shape"
   v:mID="13"
   id="shape13-65">
			<title
   id="title176">Kreis.13</title>
			<desc
   id="desc178">i=0</desc>
			<v:custProps>
				<v:cp
   v:val="VT4(myE)"
   v:langID="1033"
   v:type="0"
   v:lbl="Eigenschaft1"
   v:nameU="Row_1" />
			</v:custProps>
			<v:userDefs>
				<v:ud
   v:val="VT0(12):26"
   v:nameU="visVersion" />
				<v:ud
   v:val="VT0(1):26"
   v:nameU="msvThemeColors" />
			</v:userDefs>
			<v:textBlock
   v:tabSpace="42.5197"
   v:margins="rect(4,4,4,4)" />
			<v:textRect
   height="46.197"
   width="46.96"
   cy="768.901"
   cx="23.4769" />
			<path
   style="fill:#d9d9d9;stroke:#000000;stroke-width:0.23999999;stroke-linecap:round;stroke-linejoin:round"
   inkscape:connector-curvature="0"
   id="path180"
   class="st1"
   d="m 0,768.9 a 23.4769,23.0985 0 0 1 46.95,0 23.4769,23.0985 0 0 1 -46.95,0 z" />
			<text
   style="fill:#000000;font-family:Tahoma"
   id="text182"
   v:langID="1033"
   class="st2"
   y="772.5"
   x="14.47"><v:paragraph
   v:horizAlign="1" /><v:tabList />i=0</text>
		</g><g
   transform="translate(77.5006,-404.515)"
   v:groupContext="shape"
   v:mID="18"
   id="shape18-68">
			<title
   id="title185">Kreis.18</title>
			<desc
   id="desc187">i++</desc>
			<v:custProps>
				<v:cp
   v:val="VT4(myE)"
   v:langID="1033"
   v:type="0"
   v:lbl="Eigenschaft1"
   v:nameU="Row_1" />
			</v:custProps>
			<v:userDefs>
				<v:ud
   v:val="VT0(12):26"
   v:nameU="visVersion" />
				<v:ud
   v:val="VT0(1):26"
   v:nameU="msvThemeColors" />
			</v:userDefs>
			<v:textBlock
   v:tabSpace="42.5197"
   v:margins="rect(4,4,4,4)" />
			<v:textRect
   height="46.197"
   width="46.96"
   cy="768.901"
   cx="23.4769" />
			<path
   style="fill:#ffffff;stroke:#000000;stroke-width:0.23999999;stroke-linecap:round;stroke-linejoin:round"
   inkscape:connector-curvature="0"
   id="path189"
   class="st7"
   d="m 0,768.9 a 23.4769,23.0985 0 0 1 46.95,0 23.4769,23.0985 0 0 1 -46.95,0 z" />
			<text
   style="fill:#000000;font-family:Tahoma"
   id="text191"
   v:langID="1033"
   class="st2"
   y="772.5"
   x="13.38"><v:paragraph
   v:horizAlign="1" /><v:tabList />i++</text>
		</g><g
   transform="matrix(0,1,-1,0,892.977,295.091)"
   v:groupContext="shape"
   v:mID="19"
   id="shape19-71">
			<title
   id="title194">Punkt und Pfeil.19</title>
			<v:userDefs>
				<v:ud
   v:val="VT0(0.02863242):1"
   v:nameU="ControlX" />
				<v:ud
   v:val="VT0(1):26"
   v:nameU="Scale" />
				<v:ud
   v:val="VT0(1):26"
   v:nameU="AntiScale" />
				<v:ud
   v:val="VT0(12):26"
   v:nameU="visVersion" />
				<v:ud
   v:val="VT0(1):26"
   v:nameU="msvThemeColors" />
			</v:userDefs>
			<path
   style="fill:#000000"
   inkscape:connector-curvature="0"
   id="path196"
   class="st3"
   d="m -2.06,792 a 2.06153,2.06153 -180 1 0 4.12,0 2.06153,2.06153 -180 0 0 -4.12,0 z m 44.13,-2.06 0,4.12 4.13,-2.06 -4.13,-2.06 z" />
			<path
   style="stroke:#000000;stroke-width:0.239976;stroke-linecap:round;stroke-linejoin:round"
   inkscape:connector-curvature="0"
   id="path198"
   class="st4"
   d="m -2.06,792 a 2.06153,2.06153 -180 1 0 4.12,0 2.06153,2.06153 -180 0 0 -4.12,0" />
			<path
   style="stroke:#000000;stroke-width:0.239976;stroke-linecap:round;stroke-linejoin:round"
   inkscape:connector-curvature="0"
   id="path200"
   class="st4"
   d="m 42.07,789.94 0,4.12 4.13,-2.06 -4.13,-2.06" />
			<path
   style="stroke:#000000;stroke-width:0.239976;stroke-linecap:round;stroke-linejoin:round"
   inkscape:connector-curvature="0"
   id="path202"
   class="st4"
   d="m 2.06,792 40.01,0" />
		</g><g
   transform="translate(30.5468,-312.121)"
   v:groupContext="shape"
   v:mID="20"
   id="shape20-76">
			<title
   id="title205">Kreis.20</title>
			<desc
   id="desc207">i</desc>
			<v:custProps>
				<v:cp
   v:val="VT4(myE)"
   v:langID="1033"
   v:type="0"
   v:lbl="Eigenschaft1"
   v:nameU="Row_1" />
			</v:custProps>
			<v:userDefs>
				<v:ud
   v:val="VT0(12):26"
   v:nameU="visVersion" />
				<v:ud
   v:val="VT0(1):26"
   v:nameU="msvThemeColors" />
			</v:userDefs>
			<v:textBlock
   v:tabSpace="42.5197"
   v:margins="rect(4,4,4,4)" />
			<v:textRect
   height="46.197"
   width="46.96"
   cy="768.901"
   cx="23.4769" />
			<path
   style="fill:#ffffff;stroke:#000000;stroke-width:0.23999999;stroke-linecap:round;stroke-linejoin:round"
   inkscape:connector-curvature="0"
   id="path209"
   class="st7"
   d="m 0,768.9 a 23.4769,23.0985 0 0 1 46.95,0 23.4769,23.0985 0 0 1 -46.95,0 z" />
			<text
   style="fill:#000000;font-family:Tahoma"
   id="text211"
   v:langID="1033"
   class="st2"
   y="772.5"
   x="22.110001"><v:paragraph
   v:horizAlign="1" /><v:tabList />i</text>
		</g><g
   transform="translate(124.454,-312.121)"
   v:groupContext="shape"
   v:mID="25"
   id="shape25-79">
			<title
   id="title214">Kreis.25</title>
			<desc
   id="desc216">i++</desc>
			<v:custProps>
				<v:cp
   v:val="VT4(myE)"
   v:langID="1033"
   v:type="0"
   v:lbl="Eigenschaft1"
   v:nameU="Row_1" />
			</v:custProps>
			<v:userDefs>
				<v:ud
   v:val="VT0(12):26"
   v:nameU="visVersion" />
				<v:ud
   v:val="VT0(1):26"
   v:nameU="msvThemeColors" />
			</v:userDefs>
			<v:textBlock
   v:tabSpace="42.5197"
   v:margins="rect(4,4,4,4)" />
			<v:textRect
   height="46.197"
   width="46.96"
   cy="768.901"
   cx="23.4769" />
			<path
   style="fill:#ffffff;stroke:#000000;stroke-width:0.23999999;stroke-linecap:round;stroke-linejoin:round"
   inkscape:connector-curvature="0"
   id="path218"
   class="st7"
   d="m 0,768.9 a 23.4769,23.0985 0 0 1 46.95,0 23.4769,23.0985 0 0 1 -46.95,0 z" />
			<text
   style="fill:#000000;font-family:Tahoma"
   id="text220"
   v:langID="1033"
   class="st2"
   y="772.5"
   x="13.38"><v:paragraph
   v:horizAlign="1" /><v:tabList />i++</text>
		</g><g
   transform="matrix(-0.71282215,0.70134483,-0.70134483,-0.71282215,656.438,952.045)"
   v:groupContext="shape"
   v:mID="26"
   id="shape26-82">
			<title
   id="title223">Punkt und Pfeil.26</title>
			<v:userDefs>
				<v:ud
   v:val="VT0(0.02863242):1"
   v:nameU="ControlX" />
				<v:ud
   v:val="VT0(1):26"
   v:nameU="Scale" />
				<v:ud
   v:val="VT0(1):26"
   v:nameU="AntiScale" />
				<v:ud
   v:val="VT0(12):26"
   v:nameU="visVersion" />
				<v:ud
   v:val="VT0(1):26"
   v:nameU="msvThemeColors" />
			</v:userDefs>
			<path
   style="fill:#000000"
   inkscape:connector-curvature="0"
   id="path225"
   class="st3"
   d="m -2.06,792 a 2.06153,2.06153 -180 1 0 4.12,0 2.06153,2.06153 -180 0 0 -4.12,0 z m 63.81,-2.06 0,4.12 4.12,-2.06 -4.12,-2.06 z" />
			<path
   style="stroke:#000000;stroke-width:0.239976;stroke-linecap:round;stroke-linejoin:round"
   inkscape:connector-curvature="0"
   id="path227"
   class="st4"
   d="m -2.06,792 a 2.06153,2.06153 -180 1 0 4.12,0 2.06153,2.06153 -180 0 0 -4.12,0" />
			<path
   style="stroke:#000000;stroke-width:0.239976;stroke-linecap:round;stroke-linejoin:round"
   inkscape:connector-curvature="0"
   id="path229"
   class="st4"
   d="m 61.75,789.94 0,4.12 4.12,-2.06 -4.12,-2.06" />
			<path
   style="stroke:#000000;stroke-width:0.239976;stroke-linecap:round;stroke-linejoin:round"
   inkscape:connector-curvature="0"
   id="path231"
   class="st4"
   d="m 2.06,792 59.69,0" />
		</g><g
   transform="matrix(0.71282828,0.70133861,-0.70133861,0.71282828,656.438,-177.074)"
   v:groupContext="shape"
   v:mID="27"
   id="shape27-87">
			<title
   id="title234">Punkt und Pfeil.27</title>
			<v:userDefs>
				<v:ud
   v:val="VT0(0.02863242):1"
   v:nameU="ControlX" />
				<v:ud
   v:val="VT0(1):26"
   v:nameU="Scale" />
				<v:ud
   v:val="VT0(1):26"
   v:nameU="AntiScale" />
				<v:ud
   v:val="VT0(12):26"
   v:nameU="visVersion" />
				<v:ud
   v:val="VT0(1):26"
   v:nameU="msvThemeColors" />
			</v:userDefs>
			<path
   style="fill:#000000"
   inkscape:connector-curvature="0"
   id="path236"
   class="st3"
   d="m -2.06,792 a 2.06153,2.06153 -180 1 0 4.12,0 2.06153,2.06153 -180 0 0 -4.12,0 z m 63.81,-2.06 0,4.12 4.12,-2.06 -4.12,-2.06 z" />
			<path
   style="stroke:#000000;stroke-width:0.239976;stroke-linecap:round;stroke-linejoin:round"
   inkscape:connector-curvature="0"
   id="path238"
   class="st4"
   d="m -2.06,792 a 2.06153,2.06153 -180 1 0 4.12,0 2.06153,2.06153 -180 0 0 -4.12,0" />
			<path
   style="stroke:#000000;stroke-width:0.239976;stroke-linecap:round;stroke-linejoin:round"
   inkscape:connector-curvature="0"
   id="path240"
   class="st4"
   d="m 61.75,789.94 0,4.12 4.12,-2.06 -4.12,-2.06" />
			<path
   style="stroke:#000000;stroke-width:0.239976;stroke-linecap:round;stroke-linejoin:round"
   inkscape:connector-curvature="0"
   id="path242"
   class="st4"
   d="m 2.06,792 59.69,0" />
		</g><g
   transform="translate(273.141,-312.121)"
   v:groupContext="shape"
   v:mID="34"
   id="shape34-92">
			<title
   id="title245">Kreis.34</title>
			<desc
   id="desc247">i</desc>
			<v:custProps>
				<v:cp
   v:val="VT4(myE)"
   v:langID="1033"
   v:type="0"
   v:lbl="Eigenschaft1"
   v:nameU="Row_1" />
			</v:custProps>
			<v:userDefs>
				<v:ud
   v:val="VT0(12):26"
   v:nameU="visVersion" />
				<v:ud
   v:val="VT0(1):26"
   v:nameU="msvThemeColors" />
			</v:userDefs>
			<v:textBlock
   v:tabSpace="42.5197"
   v:margins="rect(4,4,4,4)" />
			<v:textRect
   height="46.197"
   width="46.96"
   cy="768.901"
   cx="23.4769" />
			<path
   style="fill:#d9d9d9;stroke:#000000;stroke-width:0.23999999;stroke-linecap:round;stroke-linejoin:round"
   inkscape:connector-curvature="0"
   id="path249"
   class="st1"
   d="m 0,768.9 a 23.4769,23.0985 0 0 1 46.95,0 23.4769,23.0985 0 0 1 -46.95,0 z" />
			<text
   style="fill:#000000;font-family:Tahoma"
   id="text251"
   v:langID="1033"
   class="st2"
   y="772.5"
   x="22.110001"><v:paragraph
   v:horizAlign="1" /><v:tabList />i</text>
		</g><g
   transform="translate(367.049,-312.121)"
   v:groupContext="shape"
   v:mID="8"
   id="shape8-95">
			<title
   id="title254">Kreis.8</title>
			<desc
   id="desc256">i=0</desc>
			<v:custProps>
				<v:cp
   v:val="VT4(myE)"
   v:langID="1033"
   v:type="0"
   v:lbl="Eigenschaft1"
   v:nameU="Row_1" />
			</v:custProps>
			<v:userDefs>
				<v:ud
   v:val="VT0(12):26"
   v:nameU="visVersion" />
				<v:ud
   v:val="VT0(1):26"
   v:nameU="msvThemeColors" />
			</v:userDefs>
			<v:textBlock
   v:tabSpace="42.5197"
   v:margins="rect(4,4,4,4)" />
			<v:textRect
   height="46.197"
   width="46.96"
   cy="768.901"
   cx="23.4769" />
			<path
   style="fill:#d9d9d9;stroke:#000000;stroke-width:0.23999999;stroke-linecap:round;stroke-linejoin:round"
   inkscape:connector-curvature="0"
   id="path258"
   class="st1"
   d="m 0,768.9 a 23.4769,23.0985 0 0 1 46.95,0 23.4769,23.0985 0 0 1 -46.95,0 z" />
			<text
   style="fill:#000000;font-family:Tahoma"
   id="text260"
   v:langID="1033"
   class="st2"
   y="772.5"
   x="14.47"><v:paragraph
   v:horizAlign="1" /><v:tabList />i=0</text>
		</g><g
   transform="matrix(-0.70740291,0.70681053,-0.70681053,-0.70740291,902.646,947.751)"
   v:groupContext="shape"
   v:mID="17"
   id="shape17-98">
			<title
   id="title263">Punkt und Pfeil.17</title>
			<v:userDefs>
				<v:ud
   v:val="VT0(0.02863242):1"
   v:nameU="ControlX" />
				<v:ud
   v:val="VT0(1):26"
   v:nameU="Scale" />
				<v:ud
   v:val="VT0(1):26"
   v:nameU="AntiScale" />
				<v:ud
   v:val="VT0(12):26"
   v:nameU="visVersion" />
				<v:ud
   v:val="VT0(1):26"
   v:nameU="msvThemeColors" />
			</v:userDefs>
			<path
   style="fill:#000000"
   inkscape:connector-curvature="0"
   id="path265"
   class="st3"
   d="m -2.06,792 a 2.06153,2.06153 -180 1 0 4.12,0 2.06153,2.06153 -180 0 0 -4.12,0 z m 63.3,-2.06 0,4.12 4.12,-2.06 -4.12,-2.06 z" />
			<path
   style="stroke:#000000;stroke-width:0.239976;stroke-linecap:round;stroke-linejoin:round"
   inkscape:connector-curvature="0"
   id="path267"
   class="st4"
   d="m -2.06,792 a 2.06153,2.06153 -180 1 0 4.12,0 2.06153,2.06153 -180 0 0 -4.12,0" />
			<path
   style="stroke:#000000;stroke-width:0.239976;stroke-linecap:round;stroke-linejoin:round"
   inkscape:connector-curvature="0"
   id="path269"
   class="st4"
   d="m 61.24,789.94 0,4.12 4.12,-2.06 -4.12,-2.06" />
			<path
   style="stroke:#000000;stroke-width:0.239976;stroke-linecap:round;stroke-linejoin:round"
   inkscape:connector-curvature="0"
   id="path271"
   class="st4"
   d="m 2.06,792 59.18,0" />
		</g><g
   transform="matrix(0.71812508,0.69591405,-0.69591405,0.71812508,894.018,-181.27)"
   v:groupContext="shape"
   v:mID="35"
   id="shape35-103">
			<title
   id="title274">Punkt und Pfeil.35</title>
			<v:userDefs>
				<v:ud
   v:val="VT0(0.02863242):1"
   v:nameU="ControlX" />
				<v:ud
   v:val="VT0(1):26"
   v:nameU="Scale" />
				<v:ud
   v:val="VT0(1):26"
   v:nameU="AntiScale" />
				<v:ud
   v:val="VT0(12):26"
   v:nameU="visVersion" />
				<v:ud
   v:val="VT0(1):26"
   v:nameU="msvThemeColors" />
			</v:userDefs>
			<path
   style="fill:#000000"
   inkscape:connector-curvature="0"
   id="path276"
   class="st3"
   d="m -2.06,792 a 2.06153,2.06153 -180 1 0 4.12,0 2.06153,2.06153 -180 0 0 -4.12,0 z m 64.32,-2.06 0,4.12 4.12,-2.06 -4.12,-2.06 z" />
			<path
   style="stroke:#000000;stroke-width:0.239976;stroke-linecap:round;stroke-linejoin:round"
   inkscape:connector-curvature="0"
   id="path278"
   class="st4"
   d="m -2.06,792 a 2.06153,2.06153 -180 1 0 4.12,0 2.06153,2.06153 -180 0 0 -4.12,0" />
			<path
   style="stroke:#000000;stroke-width:0.239976;stroke-linecap:round;stroke-linejoin:round"
   inkscape:connector-curvature="0"
   id="path280"
   class="st4"
   d="m 62.26,789.94 0,4.12 4.12,-2.06 -4.12,-2.06" />
			<path
   style="stroke:#000000;stroke-width:0.239976;stroke-linecap:round;stroke-linejoin:round"
   inkscape:connector-curvature="0"
   id="path282"
   class="st4"
   d="m 2.06,792 60.2,0" />
		</g><g
   transform="translate(86.6807,-618.944)"
   v:groupContext="shape"
   v:mID="23"
   id="shape23-108">
			<title
   id="title285">Tabelle.23</title>
			<desc
   id="desc287">T1:</desc>
			<v:userDefs>
				<v:ud
   v:val="VT0(1):26"
   v:nameU="msvThemeColors" />
			</v:userDefs>
			<v:textBlock
   v:tabSpace="42.5197"
   v:margins="rect(4,4,4,4)" />
			<v:textRect
   height="20.776"
   width="80.57"
   cy="781.612"
   cx="40.2817" />
			<rect
   style="fill:none;stroke:none;stroke-width:0.72000003;marker-start:url(#mrkr13-39)"
   id="rect289"
   class="st5"
   height="20.775999"
   width="80.5634"
   y="771.224"
   x="0" />
			<text
   style="fill:#000000;font-family:Tahoma"
   id="text291"
   v:langID="1033"
   class="st2"
   y="785.21002"
   x="31.379999"><v:paragraph
   v:horizAlign="1" /><v:tabList />T1:</text>
		</g><g
   transform="translate(-3.2133,-546.491)"
   v:groupContext="shape"
   v:mID="2"
   id="shape2-112">
			<title
   id="title294">Tabelle.2</title>
			<desc
   id="desc296">6c931db16336f6e0aa40709674f6680b</desc>
			<v:textBlock
   v:tabSpace="42.5197"
   v:margins="rect(4,4,4,4)" />
			<v:textRect
   height="17.6036"
   width="150.12"
   cy="783.198"
   cx="75.0586" />
			<rect
   style="fill:none;stroke:none"
   id="rect298"
   class="st8"
   height="17.6036"
   width="150.117"
   y="774.396"
   x="0" />
			<text
   style="fill:#164326;font-family:Arial"
   id="text300"
   v:langID="1033"
   class="st9"
   y="785.59998"
   x="6.3200002"><v:paragraph
   v:horizAlign="1" /><v:tabList />6c931db16336f6e0aa40709674f6680b</text>
		</g><g
   transform="translate(237.251,-546.491)"
   v:groupContext="shape"
   v:mID="16"
   id="shape16-115">
			<title
   id="title303">Tabelle.16</title>
			<desc
   id="desc305">b40a7500ad2526ade4a5e891ef96c21e</desc>
			<v:textBlock
   v:tabSpace="42.5197"
   v:margins="rect(4,4,4,4)" />
			<v:textRect
   height="17.6036"
   width="152.39"
   cy="783.198"
   cx="76.1902" />
			<rect
   style="fill:none;stroke:none"
   id="rect307"
   class="st8"
   height="17.6036"
   width="152.38"
   y="774.396"
   x="0" />
			<text
   style="fill:#164326;font-family:Arial"
   id="text309"
   v:langID="1033"
   class="st9"
   y="785.59998"
   x="6.3400002"><v:paragraph
   v:horizAlign="1" /><v:tabList />b40a7500ad2526ade4a5e891ef96c21e</text>
		</g><g
   transform="translate(574.959,-545.669)"
   v:groupContext="shape"
   v:mID="30"
   id="shape30-118">
			<title
   id="title312">Tabelle.30</title>
			<desc
   id="desc314">b40a7500ad2526ade4a5e891ef96c21e</desc>
			<v:textBlock
   v:tabSpace="42.5197"
   v:margins="rect(4,4,4,4)" />
			<v:textRect
   height="17.6036"
   width="152.39"
   cy="783.198"
   cx="76.1902" />
			<rect
   style="fill:none;stroke:none"
   id="rect316"
   class="st8"
   height="17.6036"
   width="152.38"
   y="774.396"
   x="0" />
			<text
   style="fill:#164326;font-family:Arial"
   id="text318"
   v:langID="1033"
   class="st9"
   y="785.59998"
   x="6.3400002"><v:paragraph
   v:horizAlign="1" /><v:tabList />b40a7500ad2526ade4a5e891ef96c21e</text>
		</g>
</svg>